<svg width="294" height="237" viewBox="0 0 294 237" fill="none" xmlns="http://www.w3.org/2000/svg">
<path d="M118.69 43.4498L115.49 36.6698C115.011 35.6654 114.267 34.8107 113.339 34.1975C112.41 33.5844 111.332 33.236 110.22 33.1898L76.96 31.7198C74.5161 31.628 72.1321 32.4892 70.3111 34.1217C68.4901 35.7543 67.3746 38.0304 67.2 40.4698L59.04 166.4C58.9644 167.593 59.1271 168.788 59.5186 169.918C59.9102 171.047 60.5227 172.087 61.3205 172.977C62.1183 173.867 63.0853 174.589 64.1652 175.101C65.245 175.613 66.4161 175.905 67.61 175.96L245.25 183.83C247.695 183.924 250.08 183.064 251.902 181.431C253.723 179.798 254.838 177.52 255.01 175.08L262.67 56.9998C262.734 56.0665 262.609 55.13 262.305 54.2455C262 53.361 261.522 52.5465 260.897 51.8502C260.273 51.1538 259.515 50.5897 258.669 50.1912C257.822 49.7926 256.905 49.5677 255.97 49.5298L118.69 43.4498Z" fill="#2269F4"/>
<path d="M120.56 57.4998L111.71 66.8898L61.3298 64.6598C60.4132 64.603 59.495 64.7414 58.6359 65.0658C57.7768 65.3902 56.9963 65.8932 56.346 66.5416C55.6958 67.19 55.1905 67.969 54.8636 68.8272C54.5367 69.6853 54.3956 70.6031 54.4498 71.5198L58.0898 166.36C58.2267 168.848 59.2714 171.199 61.026 172.968C62.7805 174.738 65.123 175.802 67.6098 175.96L245.25 183.83C246.424 183.899 247.599 183.72 248.698 183.303C249.798 182.886 250.797 182.242 251.63 181.412C252.463 180.582 253.111 179.585 253.531 178.487C253.952 177.389 254.135 176.214 254.07 175.04L249.96 68.1198C249.86 66.1749 249.047 64.3348 247.677 62.9513C246.306 61.5678 244.474 60.7377 242.53 60.6198L125.77 55.4398C124.804 55.3868 123.838 55.5435 122.939 55.8991C122.04 56.2547 121.228 56.8008 120.56 57.4998V57.4998ZM225.24 18.2798C225.146 18.2818 225.054 18.257 224.974 18.2082C224.894 18.1595 224.83 18.0888 224.789 18.0046C224.748 17.9205 224.732 17.8263 224.742 17.7333C224.753 17.6403 224.79 17.5523 224.85 17.4798C226.3 15.5698 227.1 14.2598 227.1 14.2498C227.134 14.1931 227.178 14.1436 227.232 14.1044C227.285 14.0651 227.345 14.0367 227.409 14.0209C227.473 14.0051 227.54 14.0021 227.605 14.0123C227.671 14.0224 227.733 14.0453 227.79 14.0798C227.846 14.1128 227.895 14.1566 227.935 14.2089C227.974 14.2611 228.002 14.3207 228.018 14.384C228.034 14.4474 228.037 14.5132 228.027 14.5778C228.017 14.6423 227.994 14.7042 227.96 14.7598C227.249 15.9091 226.475 17.0176 225.64 18.0798C225.593 18.1413 225.532 18.1913 225.463 18.226C225.394 18.2606 225.317 18.279 225.24 18.2798V18.2798Z" fill="#D4E3FF"/>
<path d="M167.03 60.6698C166.25 60.6698 165.45 60.6498 164.63 60.6098C164.497 60.6032 164.373 60.5441 164.283 60.4457C164.194 60.3472 164.148 60.2174 164.155 60.0848C164.161 59.9522 164.22 59.8277 164.319 59.7386C164.417 59.6495 164.547 59.6032 164.68 59.6098C167.349 59.741 170.026 59.6474 172.68 59.3298C172.744 59.32 172.81 59.3235 172.873 59.3401C172.937 59.3566 172.996 59.386 173.047 59.4262C173.099 59.4665 173.142 59.5168 173.173 59.5742C173.204 59.6316 173.224 59.6947 173.23 59.7598C173.24 59.825 173.236 59.8915 173.22 59.9553C173.203 60.0191 173.174 60.079 173.134 60.1313C173.094 60.1835 173.043 60.2272 172.986 60.2596C172.929 60.292 172.865 60.3125 172.8 60.3198C170.885 60.5544 168.958 60.6713 167.03 60.6698V60.6698ZM180.6 58.5598C180.494 58.5611 180.391 58.5289 180.304 58.4678C180.218 58.4068 180.153 58.3199 180.12 58.2198C180.081 58.0924 180.093 57.9551 180.152 57.836C180.212 57.7169 180.315 57.6252 180.44 57.5798C182.967 56.7452 185.393 55.6281 187.67 54.2498C187.783 54.1833 187.917 54.1639 188.044 54.1957C188.172 54.2275 188.281 54.308 188.35 54.4198C188.386 54.4758 188.41 54.5385 188.42 54.6041C188.431 54.6696 188.429 54.7368 188.413 54.8013C188.397 54.8658 188.368 54.9265 188.328 54.9795C188.288 55.0326 188.237 55.0769 188.18 55.1098C185.839 56.5181 183.351 57.665 180.76 58.5298L180.6 58.5598ZM194.33 50.2698C194.231 50.2684 194.134 50.2376 194.053 50.1814C193.971 50.1251 193.908 50.0458 193.872 49.9537C193.835 49.8615 193.827 49.7606 193.848 49.6638C193.869 49.567 193.918 49.4786 193.99 49.4098C195.911 47.5662 197.637 45.5287 199.14 43.3298C199.176 43.2753 199.224 43.2286 199.278 43.1923C199.333 43.156 199.395 43.1309 199.459 43.1184C199.524 43.1058 199.59 43.1061 199.655 43.1192C199.719 43.1324 199.78 43.158 199.835 43.1948C199.889 43.2316 199.936 43.2787 199.972 43.3335C200.008 43.3884 200.034 43.4498 200.046 43.5143C200.059 43.5789 200.058 43.6452 200.045 43.7097C200.032 43.7741 200.006 43.8353 199.97 43.8898C198.428 46.1482 196.655 48.2395 194.68 50.1298C194.634 50.176 194.58 50.2123 194.519 50.2364C194.459 50.2605 194.395 50.2719 194.33 50.2698ZM203.42 36.9998C203.357 37.014 203.292 37.014 203.23 36.9998C203.169 36.9757 203.113 36.9396 203.066 36.8936C203.019 36.8476 202.982 36.7926 202.957 36.732C202.932 36.6713 202.919 36.6063 202.92 36.5406C202.92 36.475 202.934 36.4101 202.96 36.3498C203.29 35.5498 203.59 34.7498 203.86 33.9698C202.128 34.415 200.356 34.6864 198.57 34.7798C198.503 34.7884 198.435 34.7826 198.371 34.7628C198.307 34.7431 198.248 34.7098 198.198 34.6653C198.148 34.6208 198.108 34.566 198.08 34.5047C198.053 34.4434 198.039 34.3769 198.04 34.3098C198.034 34.1762 198.081 34.0457 198.171 33.9466C198.261 33.8475 198.386 33.7876 198.52 33.7798C200.451 33.6627 202.364 33.3273 204.22 32.7798C204.629 31.4326 204.93 30.0549 205.12 28.6598C205.127 28.594 205.148 28.5302 205.18 28.4723C205.212 28.4145 205.256 28.3636 205.308 28.3226C205.36 28.2817 205.419 28.2515 205.483 28.2339C205.547 28.2162 205.614 28.2114 205.68 28.2198C205.81 28.2396 205.927 28.309 206.007 28.4134C206.087 28.5177 206.124 28.649 206.11 28.7798C205.945 30.0158 205.695 31.2388 205.36 32.4398L206.26 32.1298C206.379 32.0997 206.505 32.1145 206.614 32.1715C206.723 32.2284 206.807 32.3234 206.85 32.4385C206.893 32.5535 206.893 32.6804 206.848 32.795C206.804 32.9096 206.719 33.0039 206.61 33.0598C206.08 33.2598 205.55 33.4298 205.02 33.5898C204.7 34.5898 204.32 35.6498 203.88 36.6898C203.843 36.7819 203.78 36.8608 203.698 36.9162C203.616 36.9715 203.519 37.0007 203.42 36.9998V36.9998ZM190.56 33.8098C190.503 33.8193 190.446 33.8193 190.39 33.8098C187.661 32.9624 185.37 31.0868 184 28.5798C183.939 28.4618 183.927 28.3244 183.967 28.1978C184.008 28.0712 184.097 27.9658 184.215 27.9048C184.333 27.8438 184.47 27.8322 184.597 27.8725C184.723 27.9128 184.829 28.0018 184.89 28.1198C186.143 30.3976 188.234 32.0977 190.72 32.8598C190.845 32.9051 190.947 32.9973 191.005 33.1169C191.063 33.2364 191.071 33.3738 191.03 33.4998C190.994 33.5954 190.93 33.6776 190.846 33.7349C190.762 33.7923 190.662 33.822 190.56 33.8198V33.8098ZM213.61 29.4098C213.528 29.4119 213.447 29.3927 213.376 29.3541C213.304 29.3155 213.243 29.2589 213.2 29.1898C213.162 29.1363 213.136 29.0757 213.122 29.0117C213.108 28.9478 213.107 28.8817 213.119 28.8174C213.131 28.7531 213.156 28.6918 213.192 28.6373C213.228 28.5827 213.275 28.536 213.33 28.4998C215.545 27.0081 217.621 25.3178 219.53 23.4498C219.625 23.357 219.754 23.3059 219.887 23.3078C219.953 23.3087 220.018 23.3226 220.078 23.3487C220.139 23.3748 220.194 23.4125 220.24 23.4598C220.286 23.5071 220.322 23.5629 220.346 23.6242C220.371 23.6855 220.383 23.7509 220.382 23.8169C220.381 23.8828 220.367 23.9479 220.341 24.0085C220.315 24.069 220.277 24.1238 220.23 24.1698C218.276 26.0776 216.154 27.8046 213.89 29.3298C213.808 29.3884 213.71 29.4198 213.61 29.4198V29.4098ZM203.86 21.5498C203.777 21.5498 203.696 21.5287 203.625 21.4884C203.553 21.4482 203.493 21.3901 203.45 21.3198C201.978 19.1466 199.913 17.4423 197.5 16.4098C197.439 16.3837 197.384 16.3459 197.338 16.2985C197.293 16.2512 197.257 16.1952 197.232 16.1339C197.208 16.0726 197.196 16.007 197.198 15.9411C197.199 15.8752 197.213 15.8102 197.24 15.7498C197.264 15.6887 197.3 15.6332 197.346 15.5866C197.392 15.54 197.447 15.5035 197.508 15.4791C197.569 15.4547 197.635 15.4431 197.7 15.4449C197.766 15.4468 197.83 15.462 197.89 15.4898C200.469 16.6086 202.673 18.4447 204.24 20.7798C204.312 20.89 204.338 21.0244 204.312 21.1536C204.285 21.2828 204.209 21.3965 204.1 21.4698C204.029 21.5206 203.946 21.5516 203.86 21.5598V21.5498ZM184.04 20.9998C183.983 21.0101 183.926 21.0101 183.87 20.9998C183.747 20.9525 183.647 20.8595 183.591 20.7402C183.535 20.6209 183.527 20.4846 183.57 20.3598C184.229 18.5072 185.508 16.9389 187.19 15.9198C187.975 15.4659 188.815 15.1131 189.69 14.8698C189.817 14.8327 189.954 14.8476 190.07 14.9114C190.186 14.9752 190.273 15.0825 190.31 15.2098C190.344 15.3384 190.326 15.4752 190.261 15.591C190.195 15.7068 190.087 15.7925 189.96 15.8298C189.162 16.0618 188.399 16.3981 187.69 16.8298C186.22 17.7042 185.094 19.056 184.5 20.6598C184.466 20.756 184.404 20.8398 184.322 20.9004C184.24 20.961 184.142 20.9956 184.04 20.9998V20.9998ZM156.5 59.6498C155.21 59.4098 153.88 59.1298 152.56 58.7998C152.427 58.7693 152.312 58.6874 152.24 58.572C152.168 58.4567 152.144 58.3174 152.175 58.1848C152.205 58.0522 152.287 57.9371 152.402 57.8649C152.518 57.7927 152.657 57.7693 152.79 57.7998C154.1 58.1198 155.41 58.3998 156.68 58.6398C156.809 58.6641 156.924 58.7387 156.999 58.8474C157.074 58.956 157.103 59.0899 157.08 59.2198C157.07 59.2862 157.047 59.3499 157.013 59.4075C156.978 59.465 156.933 59.5152 156.879 59.5551C156.825 59.595 156.764 59.624 156.699 59.6402C156.634 59.6565 156.566 59.6597 156.5 59.6498Z" fill="#D4E3FF"/>
<path d="M236.081 12.7289C238.695 9.84317 239.105 5.95586 236.997 4.04641C234.889 2.13696 231.061 2.92844 228.447 5.81421C225.833 8.69998 225.423 12.5873 227.531 14.4967C229.639 16.4062 233.467 15.6147 236.081 12.7289Z" fill="#222222"/>
<path d="M233.899 5.7198C235.534 5.7198 236.859 4.39457 236.859 2.7598C236.859 1.12504 235.534 -0.200195 233.899 -0.200195C232.265 -0.200195 230.939 1.12504 230.939 2.7598C230.939 4.39457 232.265 5.7198 233.899 5.7198Z" fill="#D4E3FF"/>
<path d="M233.9 3.3498C234.225 3.3498 234.49 3.08565 234.49 2.7598C234.49 2.43396 234.225 2.1698 233.9 2.1698C233.574 2.1698 233.31 2.43396 233.31 2.7598C233.31 3.08565 233.574 3.3498 233.9 3.3498Z" fill="#222222"/>
<path d="M238.59 9.9698C240.225 9.9698 241.55 8.64457 241.55 7.0098C241.55 5.37504 240.225 4.0498 238.59 4.0498C236.955 4.0498 235.63 5.37504 235.63 7.0098C235.63 8.64457 236.955 9.9698 238.59 9.9698Z" fill="#D4E3FF"/>
<path d="M238.59 7.5998C238.915 7.5998 239.18 7.33565 239.18 7.0098C239.18 6.68396 238.915 6.4198 238.59 6.4198C238.264 6.4198 238 6.68396 238 7.0098C238 7.33565 238.264 7.5998 238.59 7.5998Z" fill="#222222"/>
<path d="M231.5 4.8198C231.628 4.88271 231.744 4.97041 231.838 5.07787C231.933 5.18534 232.006 5.31047 232.052 5.44608C232.099 5.5817 232.118 5.72515 232.109 5.86821C232.1 6.01127 232.063 6.15114 232 6.2798C230.93 8.3698 227.93 13.4698 222.78 16.2798C214.68 20.6498 209.06 11.2798 212.86 6.6898C216.99 1.5898 226.83 2.5598 231.5 4.8198Z" fill="#F5C66C"/>
<path d="M218.169 10.1598C218.089 10.1594 218.011 10.1402 217.939 10.1037C217.868 10.0673 217.807 10.0145 217.759 9.9498C217.686 9.84078 217.659 9.70727 217.683 9.57814C217.707 9.44902 217.781 9.33467 217.889 9.25981C225.419 3.95981 231.669 4.6298 231.889 4.6698C232.021 4.68488 232.14 4.75116 232.223 4.85418C232.305 4.95721 232.344 5.08862 232.329 5.21981C232.312 5.3517 232.244 5.47153 232.139 5.55374C232.034 5.63594 231.902 5.67401 231.769 5.65981C231.709 5.65981 225.619 5.0098 218.419 10.0698C218.347 10.1243 218.26 10.1557 218.169 10.1598V10.1598Z" fill="white"/>
<path d="M236.779 9.6298C236.706 9.50634 236.608 9.39901 236.492 9.3142C236.376 9.22939 236.244 9.16884 236.104 9.13617C235.964 9.10351 235.819 9.09939 235.677 9.12407C235.535 9.14874 235.4 9.2017 235.279 9.2798C233.279 10.5398 228.519 14.0398 226.279 19.4298C222.729 27.9298 232.559 32.5998 236.799 28.3598C241.429 23.7298 239.499 13.9998 236.779 9.6298Z" fill="#F5C66C"/>
<path d="M233.27 23.8398C233.183 23.8391 233.097 23.8186 233.02 23.7798C232.904 23.7128 232.819 23.6028 232.783 23.4737C232.748 23.3446 232.765 23.2067 232.83 23.0898C237.16 15.4298 235.92 9.42981 235.91 9.36981C235.895 9.30606 235.893 9.24003 235.905 9.17561C235.916 9.11118 235.94 9.04966 235.975 8.99468C236.011 8.93969 236.057 8.89235 236.111 8.85545C236.165 8.81854 236.226 8.79282 236.29 8.7798C236.354 8.76505 236.421 8.7632 236.486 8.77435C236.551 8.7855 236.613 8.80944 236.669 8.84477C236.725 8.8801 236.773 8.92612 236.811 8.9802C236.849 9.03427 236.876 9.09532 236.89 9.15981C236.95 9.40981 238.23 15.5598 233.71 23.5898C233.664 23.6655 233.599 23.7282 233.522 23.7719C233.445 23.8157 233.358 23.839 233.27 23.8398V23.8398Z" fill="white"/>
<path d="M161.57 124.88C163.542 124.88 165.14 123.281 165.14 121.31C165.14 119.338 163.542 117.74 161.57 117.74C159.598 117.74 158 119.338 158 121.31C158 123.281 159.598 124.88 161.57 124.88Z" fill="#222222"/>
<path d="M135.65 128.43C137.622 128.43 139.22 126.832 139.22 124.86C139.22 122.888 137.622 121.29 135.65 121.29C133.678 121.29 132.08 122.888 132.08 124.86C132.08 126.832 133.678 128.43 135.65 128.43Z" fill="#222222"/>
<path d="M173.12 142.53C173.04 142.529 172.961 142.508 172.89 142.47C157.33 134.53 137.26 140.2 137.06 140.26C136.994 140.277 136.926 140.282 136.859 140.273C136.791 140.265 136.726 140.243 136.667 140.209C136.608 140.175 136.556 140.13 136.515 140.076C136.473 140.022 136.443 139.96 136.425 139.895C136.407 139.829 136.403 139.761 136.412 139.693C136.42 139.626 136.442 139.561 136.476 139.502C136.51 139.443 136.555 139.391 136.609 139.349C136.663 139.308 136.724 139.277 136.79 139.26C136.99 139.26 157.43 133.43 173.35 141.55C173.453 141.6 173.536 141.683 173.585 141.786C173.633 141.89 173.645 142.007 173.618 142.118C173.592 142.229 173.527 142.327 173.437 142.397C173.346 142.466 173.234 142.503 173.12 142.5V142.53Z" fill="#222222"/>
<path d="M60.0897 214.69C59.5841 214.691 59.0814 214.613 58.5997 214.46C57.4023 214.064 56.409 213.212 55.8345 212.089C55.26 210.966 55.1505 209.663 55.5297 208.46L73.2197 154.26C73.6175 153.05 74.4795 152.049 75.6159 151.475C76.7524 150.901 78.0703 150.802 79.2797 151.2C80.4891 151.598 81.4909 152.46 82.0647 153.596C82.6386 154.733 82.7375 156.05 82.3397 157.26L64.6497 211.47C64.3202 212.415 63.7035 213.233 62.8859 213.811C62.0682 214.388 61.0906 214.696 60.0897 214.69V214.69Z" fill="#FF9C65"/>
<path d="M54.0498 164.71C54.0498 164.71 51.4598 161 57.6898 155.81L55.5898 101.33C53.7298 101.836 51.8131 102.386 49.8398 102.98C49.8398 102.98 3.42982 117.75 2.42982 162.16C1.58982 199.39 27.8698 206.61 42.7098 212.94C47.3298 214.94 54.7098 219.29 57.3898 221.54C58.7213 222.617 60.3821 223.205 62.0948 223.205C63.8075 223.205 65.4684 222.617 66.7998 221.54C70.5098 218.08 66.7998 212.94 66.7998 212.94C66.7998 212.94 72.1698 217.88 76.5298 214.32C82.0398 209.8 76.1498 203.66 76.1498 203.66C76.1498 203.66 80.9598 207.57 84.4198 203.88C87.6898 200.4 86.2098 196.01 81.8398 191.08C78.0998 186.85 70.6598 182.34 66.3698 180.84C66.3698 180.84 73.8898 178.84 80.7098 182.05C86.3498 184.7 88.7098 184 90.4898 182.05C93.8298 178.46 92.1998 161.38 54.0498 164.71Z" fill="#2269F4"/>
<path d="M88.3099 162.18C78.8309 162.19 69.6778 158.72 62.5878 152.429C55.4978 146.137 50.9641 137.462 49.8472 128.049C48.7303 118.636 51.1079 109.14 56.5288 101.364C61.9497 93.5879 70.0366 88.0724 79.2548 85.8642C88.4731 83.6561 98.1813 84.9089 106.537 89.3849C114.893 93.8609 121.315 101.249 124.584 110.146C127.853 119.043 127.742 128.832 124.272 137.653C120.802 146.474 114.215 153.714 105.76 158C100.352 160.745 94.3742 162.177 88.3099 162.18V162.18ZM88.24 94.4998C80.9232 94.4826 73.8689 97.2242 68.484 102.178C63.0991 107.131 59.7794 113.933 59.1871 121.226C58.5948 128.518 60.7733 135.766 65.2882 141.524C69.8032 147.282 76.3226 151.126 83.5462 152.29C90.7698 153.453 98.1666 151.851 104.261 147.803C110.356 143.755 114.701 137.558 116.429 130.448C118.157 123.338 117.141 115.838 113.585 109.444C110.028 103.05 104.192 98.2315 97.24 95.9498C94.3356 94.9932 91.2978 94.5038 88.24 94.4998V94.4998Z" fill="#FF9C65"/>
<path d="M66.7998 213.44C66.7186 213.44 66.6386 213.42 66.567 213.382C66.4954 213.343 66.4345 213.288 66.3898 213.22C62.7598 207.99 54.2898 203.22 54.1998 203.22C54.0846 203.155 53.9999 203.047 53.9642 202.919C53.9286 202.792 53.945 202.655 54.0098 202.54C54.0412 202.482 54.0837 202.431 54.1349 202.389C54.1861 202.348 54.245 202.317 54.3082 202.298C54.3714 202.28 54.4376 202.274 54.5031 202.281C54.5686 202.288 54.632 202.308 54.6898 202.34C55.0398 202.54 63.4498 207.23 67.2098 212.65C67.2477 212.704 67.2744 212.765 67.2883 212.83C67.3023 212.895 67.3033 212.962 67.2912 213.027C67.2791 213.092 67.2542 213.154 67.2179 213.21C67.1816 213.265 67.1346 213.313 67.0798 213.35C66.9985 213.409 66.9003 213.441 66.7998 213.44V213.44ZM76.1498 204.16C76.0723 204.159 75.996 204.141 75.9267 204.106C75.8574 204.071 75.7969 204.021 75.7498 203.96C71.7659 199.054 66.9406 194.895 61.4998 191.68C61.3856 191.611 61.3028 191.5 61.2691 191.371C61.2355 191.242 61.2537 191.105 61.3198 190.99C61.3527 190.933 61.3966 190.884 61.4489 190.845C61.5011 190.806 61.5607 190.777 61.624 190.762C61.6874 190.746 61.7532 190.743 61.8178 190.753C61.8823 190.763 61.9442 190.786 61.9998 190.82C67.5547 194.1 72.4788 198.347 76.5398 203.36C76.5792 203.412 76.6078 203.472 76.6241 203.536C76.6404 203.599 76.644 203.665 76.6348 203.73C76.6255 203.795 76.6035 203.858 76.57 203.915C76.5366 203.971 76.4923 204.02 76.4398 204.06C76.357 204.125 76.2549 204.16 76.1498 204.16V204.16Z" fill="#222222"/>
<path d="M254.76 119.15C253.76 118.15 252.81 117.15 251.81 116.29L254.07 175C254.135 176.174 253.952 177.348 253.531 178.446C253.111 179.545 252.463 180.541 251.63 181.371C250.797 182.202 249.798 182.846 248.698 183.263C247.599 183.68 246.423 183.859 245.25 183.79L230.91 183.16L230.54 183.06L230.73 183.3C230.73 183.3 200.66 178.46 198.14 175.58C194.7 171.66 190.92 163.95 188.14 155.73C185.36 147.51 182.59 145.45 179.2 146.45C172.04 148.56 176.2 164.6 176.2 164.6C169.926 161.716 163.84 158.44 157.98 154.79C151.05 150.31 144.62 146.79 141.68 150.86C139.58 153.78 139.2 160.29 156.85 169.49C156.85 169.49 152.06 169.49 150.77 174.07C149.48 178.65 153.91 181.34 153.91 181.34C153.91 181.34 148.68 180.88 147.91 186.27C147.28 190.64 151.13 193.57 151.13 193.57C151.13 193.57 146.9 193.38 146 197.44C145.1 201.5 147.45 204.32 152 208.2C159.55 214.65 239.8 256.6 272.52 224.68C300.5 197.45 272.5 137.72 254.76 119.15Z" fill="#2269F4"/>
<path d="M258.37 123.81C258.295 123.809 258.221 123.791 258.153 123.758C258.086 123.725 258.027 123.678 257.98 123.62C256.76 122.09 255.56 120.7 254.4 119.49C253.54 118.59 252.58 117.66 251.47 116.66C251.421 116.615 251.382 116.561 251.354 116.501C251.326 116.441 251.31 116.377 251.308 116.311C251.305 116.245 251.315 116.179 251.338 116.117C251.36 116.055 251.395 115.998 251.44 115.95C251.484 115.901 251.538 115.862 251.598 115.834C251.658 115.806 251.722 115.79 251.788 115.788C251.854 115.785 251.92 115.795 251.982 115.818C252.044 115.84 252.101 115.875 252.15 115.92C253.27 116.92 254.25 117.92 255.15 118.8C256.32 120.03 257.54 121.44 258.78 123C258.861 123.103 258.899 123.235 258.884 123.366C258.869 123.497 258.803 123.617 258.7 123.7C258.606 123.774 258.489 123.813 258.37 123.81V123.81Z" fill="#222222"/>
<path d="M28.08 51.5998C28.08 51.5998 16.72 63.6598 8.76999 55.9198C0.819991 48.1798 6.19999 32.0198 21.77 27.4298C34.77 23.5998 42.61 28.6498 45.48 34.1598C49.9 42.6198 48.48 55.0298 37.69 64.8798C37.69 64.8798 42.91 63.1798 43.86 69.0298C44.81 74.8798 32.63 79.5698 26.72 73.0298C20.81 66.4898 28.08 51.5998 28.08 51.5998Z" fill="#5CC4FF"/>
<path d="M41.7798 94.2398C46.3472 94.2398 50.0498 90.5372 50.0498 85.9698C50.0498 81.4024 46.3472 77.6998 41.7798 77.6998C37.2124 77.6998 33.5098 81.4024 33.5098 85.9698C33.5098 90.5372 37.2124 94.2398 41.7798 94.2398Z" fill="#5CC4FF"/>
<path d="M28.0798 52.0998C27.9435 52.0957 27.8142 52.0383 27.7198 51.9398C27.6733 51.8942 27.6363 51.8397 27.611 51.7796C27.5858 51.7195 27.5728 51.655 27.5728 51.5898C27.5728 51.5246 27.5858 51.4601 27.611 51.4C27.6363 51.3399 27.6733 51.2854 27.7198 51.2398C30.6048 48.2768 32.7585 44.6815 34.0098 40.7398C34.047 40.6072 34.1352 40.4948 34.2553 40.4273C34.3753 40.3597 34.5172 40.3427 34.6498 40.3798C34.7824 40.4169 34.8949 40.5052 34.9624 40.6252C35.0299 40.7453 35.0469 40.8872 35.0098 41.0198C33.7201 45.1507 31.4645 48.9147 28.4298 51.9998C28.3282 52.0726 28.2046 52.108 28.0798 52.0998ZM32.4998 68.7998C32.3851 68.798 32.2742 68.7575 32.1853 68.6849C32.0964 68.6123 32.0346 68.5119 32.0098 68.3998C31.9953 68.3353 31.9939 68.2686 32.0058 68.2037C32.0177 68.1387 32.0426 68.0767 32.079 68.0216C32.1154 67.9665 32.1627 67.9194 32.2178 67.8829C32.2729 67.8465 32.3348 67.8217 32.3998 67.8098C34.6498 67.3498 37.2298 64.5698 37.2598 64.5398C37.3063 64.4929 37.3616 64.4557 37.4225 64.4304C37.4835 64.405 37.5488 64.3919 37.6148 64.3919C37.6808 64.3919 37.7462 64.405 37.8071 64.4304C37.868 64.4557 37.9233 64.4929 37.9698 64.5398C38.0621 64.6349 38.1137 64.7623 38.1137 64.8948C38.1137 65.0273 38.0621 65.1546 37.9698 65.2498C37.8498 65.3698 35.1298 68.2998 32.5698 68.8198L32.4998 68.7998Z" fill="#222222"/>
<path d="M264 44.2198C265.924 39.4801 268.114 34.8528 270.56 30.3598C271.17 29.2298 269.44 28.2098 268.83 29.3598C266.309 34.0091 264.052 38.7967 262.07 43.6998C262.035 43.8265 262.026 43.9589 262.042 44.0893C262.058 44.2197 262.1 44.3457 262.165 44.4599C262.23 44.5742 262.317 44.6745 262.421 44.7551C262.525 44.8357 262.643 44.8951 262.77 44.9298C262.897 44.9647 263.029 44.9743 263.16 44.958C263.29 44.9417 263.416 44.8998 263.53 44.8348C263.644 44.7698 263.745 44.6829 263.825 44.5791C263.906 44.4753 263.965 44.3566 264 44.2298V44.2198ZM268.63 53.3098L292.07 44.1998C293.26 43.7398 292.74 41.7998 291.54 42.2698L268.1 51.3898C266.92 51.8498 267.43 53.7798 268.63 53.3098ZM269.69 64.8598L285.83 66.8598C286.095 66.8598 286.35 66.7544 286.537 66.5669C286.725 66.3794 286.83 66.125 286.83 65.8598C286.83 65.5946 286.725 65.3402 286.537 65.1527C286.35 64.9652 286.095 64.8598 285.83 64.8598L269.69 62.8598C269.15 62.7898 268.69 63.3698 268.69 63.8598C268.69 64.125 268.795 64.3794 268.983 64.5669C269.17 64.7544 269.425 64.8598 269.69 64.8598Z" fill="#F5C66C"/>
<path d="M285.83 125.1C289.889 125.1 293.18 121.809 293.18 117.75C293.18 113.691 289.889 110.4 285.83 110.4C281.771 110.4 278.48 113.691 278.48 117.75C278.48 121.809 281.771 125.1 285.83 125.1Z" fill="#F5C66C"/>
<path d="M5.11989 111.82C7.46158 111.82 9.35989 109.921 9.35989 107.58C9.35989 105.238 7.46158 103.34 5.11989 103.34C2.7782 103.34 0.879883 105.238 0.879883 107.58C0.879883 109.921 2.7782 111.82 5.11989 111.82Z" fill="#F5C66C"/>
<path d="M106.37 228.41C109.733 228.41 112.46 225.683 112.46 222.32C112.46 218.956 109.733 216.23 106.37 216.23C103.006 216.23 100.28 218.956 100.28 222.32C100.28 225.683 103.006 228.41 106.37 228.41Z" fill="#F5C66C"/>
</svg>
